Patient4_TMGait_0pt6_02_right_46_GRF.mot
version=1
nRows=26
nColumns=19
inDegrees=no
endheader
time	F1x	F1y	F1z	M1x	M1y	M1z	F2x	F2y	F2z	M2x	M2y	M2z	EC1x	EC1y	EC1z	EC2x	EC2y	EC2z
55.53	-19.5017	812.1775	79.2915	-298.0023	-92.2723	906.4546	-22.1653	27.2376	12.6301	3.1859	-4.6975	39.7609	-0.0592	0.0182	-0.0073	-0.0462	0.0165	0.9585
55.5423	-19.0957	802.5643	75.3566	-294.4733	-87.2434	889.9011	-15.0684	19.5251	8.8307	2.4715	-3.3732	28.1705	-0.0592	0.0182	-0.0073	-0.0462	0.0165	0.9585
55.5546	-17.8309	790.691	71.663	-290.016	-82.0664	870.5385	-9.1386	13.0168	5.53	1.9036	-2.1543	18.4127	-0.0592	0.0182	-0.0073	-0.0462	0.0165	0.9585
55.5669	-15.6756	777.1734	68.2862	-284.8828	-76.8711	849.2445	-4.6514	8.0617	2.9605	1.495	-1.169	10.9946	-0.0592	0.0182	-0.0073	-0.0462	0.0165	0.9585
55.5791	-12.7355	762.8559	65.2566	-279.4233	-71.7655	827.0233	-1.6015	4.6736	1.144	1.2403	-0.43889	5.9429	-0.0592	0.0182	-0.0073	-0.0462	0.0165	0.9585
55.5914	-9.1774	748.6059	62.4742	-274.001	-66.7468	804.837	0.26297	2.5987	-0.015248	1.1032	0.049864	2.8596	-0.0592	0.0182	-0.0073	-0.0462	0.0165	0.9585
55.6037	-5.1756	735.1902	59.9098	-268.9371	-61.8648	783.5277	1.2003	1.5119	-0.66757	1.0435	0.35504	1.2692	-0.0592	0.0182	-0.0073	-0.0462	0.0165	0.9585
55.616	-0.90199	723.2197	57.468	-264.4884	-57.0965	763.7522	1.499	1.0618	-0.96321	1.0156	0.52971	0.65358	-0.0592	0.0182	-0.0073	-0.0462	0.0165	0.9585
55.6283	3.4793	713.1536	55.144	-260.8385	-52.4913	746.004	1.3929	0.92318	-1.0391	0.97017	0.63235	0.53576	-0.0592	0.0182	-0.0073	-0.0462	0.0165	0.9585
55.6406	7.8746	705.3626	52.8982	-258.1194	-48.043	730.6664	1.052	0.81921	-0.99393	0.8561	0.70681	0.50744	-0.0592	0.0182	-0.0073	-0.0462	0.0165	0.9585
55.6529	12.1914	700.0835	50.79	-256.3969	-43.8293	718.0029	0.61795	0.49115	-0.91075	0.61569	0.79074	0.21218	-0.0592	0.0182	-0.0073	-0.0462	0.0165	0.9585
55.6651	16.3963	697.4163	48.8795	-255.6755	-39.9069	708.1268	0.15773	-0.22531	-0.83662	0.20675	0.90294	-0.54756	-0.0592	0.0182	-0.0073	-0.0462	0.0165	0.9585
55.6774	20.4577	697.3427	47.3085	-255.9037	-36.406	701.0631	-0.23822	-1.4732	-0.79639	-0.40683	1.0301	-1.9647	-0.0592	0.0182	-0.0073	-0.0462	0.0165	0.9585
55.6897	24.3887	699.7291	46.1914	-256.9876	-33.4248	696.6959	-0.55005	-3.2453	-0.7878	-1.2169	1.1478	-4.0236	-0.0592	0.0182	-0.0073	-0.0462	0.0165	0.9585
55.702	28.1634	704.3365	45.6557	-258.7943	-31.079	694.8199	-0.66912	-5.4323	-0.78204	-2.1707	1.1849	-6.616	-0.0592	0.0182	-0.0073	-0.0462	0.0165	0.9585
55.7143	31.7922	710.7798	45.7537	-261.1466	-29.4064	695.0791	-0.55759	-7.6759	-0.72401	-3.1238	1.0563	-9.2851	-0.0592	0.0182	-0.0073	-0.0462	0.0165	0.9585
55.7266	35.227	718.5249	46.5214	-263.8227	-28.4477	696.9895	-0.062963	-9.3441	-0.53056	-3.8173	0.61248	-11.285	-0.0592	0.0182	-0.0073	-0.0462	0.0165	0.9585
55.7389	38.4062	726.9022	47.9129	-266.5664	-28.1778	699.9349	0.90282	-9.4014	-0.098863	-3.8346	-0.30636	-11.3563	-0.0592	0.0182	-0.0073	-0.0462	0.0165	0.9585
55.7511	41.2324	735.0981	49.8345	-269.0831	-28.5411	703.1809	2.4927	-6.4184	0.69704	-2.5942	-1.8933	-7.7959	-0.0592	0.0182	-0.0073	-0.0462	0.0165	0.9585
55.7634	43.5901	742.1506	52.1122	-271.035	-29.4178	705.8517	4.7727	1.5116	1.9754	0.66877	-4.3015	1.6928	-0.0592	0.0182	-0.0073	-0.0462	0.0165	0.9585
55.7757	45.3782	746.9459	54.5335	-272.0443	-30.6473	706.9132	7.7366	16.5568	3.8279	6.8294	-7.6124	19.6988	-0.0592	0.0182	-0.0073	-0.0462	0.0165	0.9585
55.788	46.5287	748.3372	56.8293	-271.7241	-32.0137	705.3193	11.1782	40.9185	6.2673	16.7661	-11.7312	48.8619	-0.0592	0.0182	-0.0073	-0.0462	0.0165	0.9585
55.8003	47.0336	745.1595	58.7135	-269.6872	-33.2703	699.9867	14.6085	76.2117	9.1497	31.1175	-16.2638	91.1049	-0.0592	0.0182	-0.0073	-0.0462	0.0165	0.9585
55.8126	46.8932	736.3405	59.8828	-265.5839	-34.1546	689.9293	17.1194	122.5649	12.0937	49.9152	-20.3663	146.5716	-0.0592	0.0182	-0.0073	-0.0462	0.0165	0.9585
55.8249	46.2032	720.9748	60.0367	-259.1427	-34.3751	674.2618	17.287	177.3675	14.3545	72.0725	-22.5864	212.141	-0.0592	0.0182	-0.0073	-0.0462	0.0165	0.9585
55.8371	45.0951	698.6134	58.9172	-250.262	-33.6665	652.5126	13.6961	234.1707	14.8688	94.941	-21.1611	280.0998	-0.0592	0.0182	-0.0073	-0.0462	0.0165	0.9585
